<?xml version="1.0" encoding="utf-8"?>
<!-- Generator: Adobe Illustrator 25.2.1, SVG Export Plug-In . SVG Version: 6.00 Build 0)  -->
<svg version="1.1" xmlns="http://www.w3.org/2000/svg" xmlns:xlink="http://www.w3.org/1999/xlink" x="0px" y="0px"
	 viewBox="0 0 20 30" style="enable-background:new 0 0 20 30;" xml:space="preserve">
<style type="text/css">
	.st0{fill:#D3D5D6;}
	.st1{fill:#58B25E;}
	.st2{fill:#4484C5;}
	.st3{fill:#EA7526;}
</style>
<g id="arrows">
	<polygon id="arrow_1_" class="st0" points="8.6,0.9 8.2,1.2 8.9,1.9 5.6,1.9 5.6,2.4 8.9,2.4 8.2,3.2 8.6,3.5 9.9,2.2 	"/>
	<polygon id="arrow" class="st0" points="19.6,0.9 19.2,1.2 19.9,1.9 16.5,1.9 16.5,2.4 19.9,2.4 19.2,3.2 19.6,3.5 20.9,2.2 	"/>
</g>
<g id="greendot">
	<circle id="grey" class="st0" cx="24" cy="2.2" r="2.1"/>
	<circle id="green" class="st1" cx="24" cy="2.2" r="1.6"/>
	<path id="R" class="st0" d="M23.4,1.1h0.7c0.4,0,0.7,0.1,0.7,0.5c0,0.3-0.1,0.4-0.4,0.5l0.5,0.8h-0.5L24,2.2h-0.2v0.7h-0.4V1.1z
		 M23.8,1.9H24c0.1,0,0.3,0,0.3-0.2c0-0.2-0.2-0.2-0.3-0.2h-0.3V1.9z"/>
</g>
<g id="bluedot">
	<circle id="grey_2_" class="st0" cx="2.2" cy="2.2" r="2.1"/>
	<circle id="blue" class="st2" cx="2.2" cy="2.2" r="1.6"/>
	<path id="S" class="st0" d="M2.6,1.6C2.5,1.5,2.4,1.4,2.3,1.4C2.2,1.4,2,1.5,2,1.6C2,2,2.9,1.7,2.9,2.4C2.9,2.8,2.5,3,2.2,3
		C1.9,3,1.7,2.9,1.6,2.7l0.3-0.3C1.9,2.5,2,2.6,2.2,2.6c0.1,0,0.3-0.1,0.3-0.2c0-0.3-0.8-0.2-0.8-0.8c0-0.4,0.3-0.6,0.7-0.6
		c0.2,0,0.4,0.1,0.6,0.2L2.6,1.6z"/>
</g>
<g id="orangedot">
	<circle id="grey_1_" class="st0" cx="13.2" cy="2.2" r="2.1"/>
	<circle id="orange" class="st3" cx="13.2" cy="2.2" r="1.6"/>
	<path id="I" class="st0" d="M13,1.1h0.4v1.8H13V1.1z"/>
</g>
</svg>
