<?xml version="1.0" encoding="utf-8"?>
<!-- Generator: Adobe Illustrator 25.2.3, SVG Export Plug-In . SVG Version: 6.00 Build 0)  -->
<svg version="1.1" id="Layer_2" xmlns="http://www.w3.org/2000/svg" xmlns:xlink="http://www.w3.org/1999/xlink" x="0px" y="0px"
	 viewBox="0 0 492.2 292.7" style="enable-background:new 0 0 492.2 292.7;" xml:space="preserve">
<style type="text/css">
	.st0{clip-path:url(#SVGID_2_);}
	.st1{fill:#2B542D;}
	.st2{clip-path:url(#SVGID_4_);}
	.st3{fill:#305A32;}
	.st4{fill:#2F5931;}
	.st5{fill:#2E5830;}
	.st6{fill:#2E5730;}
	.st7{fill:#2D562F;}
	.st8{fill:#3A683C;}
	.st9{fill:#5AB261;}
	.st10{clip-path:url(#SVGID_6_);}
	.st11{clip-path:url(#SVGID_8_);}
	.st12{fill:#93501E;}
	.st13{clip-path:url(#SVGID_10_);}
	.st14{fill:#AE6028;}
	.st15{fill:#AA5D27;}
	.st16{fill:#A55A25;}
	.st17{fill:#A05823;}
	.st18{fill:#9C5521;}
	.st19{fill:#9D5622;}
	.st20{fill:#8F4D1C;}
	.st21{fill:#E87F3A;}
	.st22{clip-path:url(#SVGID_12_);}
	.st23{fill:#975220;}
	.st24{clip-path:url(#SVGID_14_);}
	.st25{fill:#183B57;}
	.st26{clip-path:url(#SVGID_16_);}
	.st27{fill:#1F4462;}
	.st28{fill:#1E4260;}
	.st29{fill:#1D415E;}
	.st30{fill:#1C3F5C;}
	.st31{fill:#1A3E5A;}
	.st32{fill:#214B68;}
	.st33{fill:#4484C5;}
	.st34{clip-path:url(#SVGID_18_);}
</style>
<g>
	<g>
		<g>
			<defs>
				<path id="SVGID_1_" d="M277.2,228.8v-8.1c0,1.8,1.2,3.6,3.5,5v8.1C278.4,232.3,277.2,230.5,277.2,228.8z"/>
			</defs>
			<clipPath id="SVGID_2_">
				<use xlink:href="#SVGID_1_"  style="overflow:visible;"/>
			</clipPath>
			<g class="st0">
				<g>
					<path class="st1" d="M280.8,225.6v8.1c-2.4-1.4-3.5-3.2-3.5-4.9v-8.1C277.3,222.4,278.4,224.2,280.8,225.6"/>
				</g>
			</g>
		</g>
	</g>
	<g>
		<g>
			<defs>
				<path id="SVGID_3_" d="M492.1,224v8.1c0,1.8-1.2,3.5-3.5,4.9v-8.1C491,227.5,492.1,225.8,492.1,224z"/>
			</defs>
			<clipPath id="SVGID_4_">
				<use xlink:href="#SVGID_3_"  style="overflow:visible;"/>
			</clipPath>
			<g class="st2">
				<g>
					<path class="st3" d="M492.1,224v8.1c0,0.6-0.1,1.3-0.4,1.8v-8.1C492,225.3,492.1,224.6,492.1,224"/>
					<path class="st4" d="M491.7,225.8v8.1c-0.2,0.4-0.4,0.8-0.7,1.2V227C491.3,226.6,491.5,226.2,491.7,225.8"/>
					<path class="st5" d="M491,227v8.1c-0.3,0.3-0.6,0.6-0.9,0.9v-8.1C490.4,227.6,490.7,227.3,491,227"/>
					<path class="st6" d="M490.1,227.9v8.1c-0.3,0.3-0.7,0.5-1.1,0.8v-8.1C489.5,228.4,489.8,228.2,490.1,227.9"/>
					<path class="st7" d="M489,228.7v8.1l-0.3,0.2v-8.1L489,228.7"/>
				</g>
			</g>
		</g>
	</g>
	<polygon class="st8" points="488.7,228.9 488.7,237 396.4,290.6 396.4,282.5 	"/>
	<polygon class="st8" points="379.4,282.5 379.4,290.6 280.8,233.7 280.8,225.6 	"/>
	<path class="st9" d="M488.6,219c4.7,2.7,4.7,7.1,0,9.8l-92.2,53.7c-4.6,2.7-12.3,2.7-17,0l-98.6-56.9c-4.7-2.7-4.7-7.1-0.1-9.8
		l92.3-53.6c4.6-2.7,12.3-2.7,17,0L488.6,219z"/>
	<g>
		<g>
			<defs>
				<path id="SVGID_5_" d="M396.4,282.5v8.1c-4.6,2.7-12.3,2.7-17,0v-8.1C384.1,285.2,391.8,285.2,396.4,282.5z"/>
			</defs>
			<use xlink:href="#SVGID_5_"  style="overflow:visible;fill:#3A683C;"/>
			<clipPath id="SVGID_6_">
				<use xlink:href="#SVGID_5_"  style="overflow:visible;"/>
			</clipPath>
			<g class="st10">
				<g>
					<path class="st8" d="M396.4,282.5v8.1c-0.3,0.2-0.6,0.4-1,0.5V283C395.7,282.9,396.1,282.7,396.4,282.5"/>
					<path class="st8" d="M395.4,283v8.1c-0.6,0.3-1.2,0.5-1.8,0.7v-8.2C394.3,283.5,394.9,283.3,395.4,283"/>
					<path class="st8" d="M393.7,283.7v8.2c-4.5,1.4-10.4,1-14.2-1.2v-8.1C383.3,284.7,389.1,285.1,393.7,283.7"/>
				</g>
			</g>
		</g>
	</g>
</g>
<g>
	<g>
		<g>
			<defs>
				<path id="SVGID_7_" d="M138.6,148.7v-8.1c0,1.8,1.2,3.6,3.5,4.9v8.2C139.8,152.3,138.6,150.5,138.6,148.7z"/>
			</defs>
			<clipPath id="SVGID_8_">
				<use xlink:href="#SVGID_7_"  style="overflow:visible;"/>
			</clipPath>
			<g class="st11">
				<g>
					<path class="st12" d="M142.1,145.5v8.2c-2.4-1.4-3.5-3.2-3.5-4.9v-8.1C138.6,142.4,139.8,144.2,142.1,145.5"/>
				</g>
			</g>
		</g>
	</g>
	<g>
		<g>
			<defs>
				<path id="SVGID_9_" d="M353.5,144v8.1c0,1.8-1.2,3.5-3.5,4.9v-8.1C352.4,147.5,353.5,145.7,353.5,144z"/>
			</defs>
			<clipPath id="SVGID_10_">
				<use xlink:href="#SVGID_9_"  style="overflow:visible;"/>
			</clipPath>
			<g class="st13">
				<g>
					<path class="st14" d="M353.5,144v8.1c0,0.6-0.1,1.3-0.4,1.8v-8.1C353.4,145.2,353.5,144.6,353.5,144"/>
					<path class="st15" d="M353.1,145.8v8.1c-0.2,0.4-0.4,0.8-0.7,1.2v-8.1C352.7,146.6,353,146.2,353.1,145.8"/>
					<path class="st16" d="M352.4,147v8.1c-0.3,0.3-0.6,0.6-0.9,0.9v-8.1C351.8,147.6,352.1,147.3,352.4,147"/>
					<path class="st17" d="M351.5,147.9v8.1c-0.3,0.3-0.7,0.5-1.1,0.8v-8.1C350.8,148.4,351.1,148.1,351.5,147.9"/>
					<path class="st18" d="M350.4,148.6v8.1l-0.4,0.2v-8.1L350.4,148.6"/>
				</g>
			</g>
		</g>
	</g>
	<polygon class="st19" points="350.1,148.8 350,157 257.8,210.6 257.8,202.5 	"/>
	<polygon class="st20" points="240.8,202.5 240.8,210.6 142.1,153.7 142.2,145.5 	"/>
	<path class="st21" d="M350,139c4.7,2.7,4.7,7.1,0.1,9.8l-92.3,53.6c-4.6,2.7-12.3,2.7-17,0l-98.6-57c-4.7-2.7-4.7-7.1,0-9.8
		L234.4,82c4.6-2.7,12.3-2.7,17,0L350,139z"/>
	<g>
		<g>
			<defs>
				<path id="SVGID_11_" d="M257.8,202.5v8.1c-4.6,2.7-12.3,2.7-17,0v-8.1C245.5,205.2,253.1,205.2,257.8,202.5z"/>
			</defs>
			<clipPath id="SVGID_12_">
				<use xlink:href="#SVGID_11_"  style="overflow:visible;"/>
			</clipPath>
			<g class="st22">
				<g>
					<path class="st18" d="M257.8,202.5v8.1c-0.3,0.2-0.6,0.4-1,0.5V203C257.1,202.8,257.4,202.6,257.8,202.5"/>
					<path class="st23" d="M256.8,203v8.1c-0.6,0.3-1.2,0.5-1.8,0.7v-8.2C255.7,203.5,256.2,203.3,256.8,203"/>
					<path class="st12" d="M255,203.6v8.2c-4.5,1.4-10.4,1-14.2-1.2v-8.1C244.6,204.7,250.5,205.1,255,203.6"/>
				</g>
			</g>
		</g>
	</g>
</g>
<g>
	<g>
		<g>
			<defs>
				<path id="SVGID_13_" d="M0,68.7v-8.2c0,1.8,1.2,3.6,3.5,5v8.2C1.1,72.3,0,70.5,0,68.7z"/>
			</defs>
			<clipPath id="SVGID_14_">
				<use xlink:href="#SVGID_13_"  style="overflow:visible;"/>
			</clipPath>
			<g class="st24">
				<g>
					<path class="st25" d="M3.6,65.5v8.2c-2.4-1.4-3.5-3.2-3.5-5v-8.2C0,62.3,1.2,64.1,3.6,65.5"/>
				</g>
			</g>
		</g>
	</g>
	<g>
		<g>
			<defs>
				<path id="SVGID_15_" d="M214.9,63.9v8.2c0,1.8-1.2,3.5-3.5,4.9v-8.2C213.8,67.5,214.9,65.7,214.9,63.9z"/>
			</defs>
			<clipPath id="SVGID_16_">
				<use xlink:href="#SVGID_15_"  style="overflow:visible;"/>
			</clipPath>
			<g class="st26">
				<g>
					<path class="st27" d="M214.9,63.9v8.2c0,0.6-0.1,1.3-0.4,1.8v-8.2C214.8,65.2,214.9,64.6,214.9,63.9"/>
					<path class="st28" d="M214.5,65.7v8.2c-0.2,0.4-0.5,0.8-0.8,1.2v-8.2C214,66.6,214.3,66.2,214.5,65.7"/>
					<path class="st29" d="M213.8,66.9v8.2c-0.3,0.3-0.6,0.6-0.9,0.9v-8.2C213.2,67.5,213.5,67.2,213.8,66.9"/>
					<path class="st30" d="M212.8,67.8V76c-0.3,0.3-0.7,0.5-1.1,0.8v-8.2C212.2,68.4,212.5,68.1,212.8,67.8"/>
					<path class="st31" d="M211.8,68.6v8.2l-0.4,0.2v-8.2L211.8,68.6"/>
				</g>
			</g>
		</g>
	</g>
	<polygon class="st32" points="211.4,68.8 211.4,77 119.1,130.6 119.2,122.4 	"/>
	<polygon class="st32" points="102.2,122.4 102.2,130.6 3.5,73.6 3.6,65.5 	"/>
	<path class="st33" d="M211.4,59c4.7,2.7,4.7,7.1,0,9.8l-92.2,53.6c-4.7,2.7-12.3,2.7-17,0l-98.6-57c-4.7-2.7-4.7-7.1-0.1-9.8
		L95.8,2c4.7-2.7,12.3-2.7,17,0L211.4,59z"/>
	<g>
		<g>
			<defs>
				<path id="SVGID_17_" d="M119.2,122.4v8.1c-4.6,2.7-12.3,2.7-17,0v-8.2C106.9,125.1,114.5,125.1,119.2,122.4z"/>
			</defs>
			<clipPath id="SVGID_18_">
				<use xlink:href="#SVGID_17_"  style="overflow:visible;"/>
			</clipPath>
			<g class="st34">
				<g>
					<path class="st31" d="M119.2,122.4v8.1c-0.3,0.2-0.6,0.4-1,0.5v-8.2C118.5,122.8,118.8,122.6,119.2,122.4"/>
					<path class="st32" d="M118.2,122.9v8.2c-0.6,0.3-1.2,0.5-1.8,0.7v-8.2C117,123.4,117.6,123.2,118.2,122.9"/>
					<path class="st32" d="M116.4,123.6v8.2c-4.5,1.4-10.4,1-14.2-1.2v-8.2C106,124.7,111.9,125.1,116.4,123.6"/>
				</g>
			</g>
		</g>
	</g>
</g>
</svg>
