<svg xmlns="http://www.w3.org/2000/svg" xmlns:xlink="http://www.w3.org/1999/xlink" viewBox="0 0 492.16 292.68"><defs><style>.cls-1{fill:none;}.cls-2{isolation:isolate;}.cls-3{clip-path:url(#clip-path);}.cls-4{fill:#183b57;}.cls-5{clip-path:url(#clip-path-2);}.cls-6{fill:#1f4462;}.cls-7{fill:#1e4260;}.cls-8{fill:#1d415e;}.cls-9{fill:#1c3f5c;}.cls-10{fill:#1a3e5a;}.cls-11{fill:#1b3e5b;}.cls-12{fill:#173955;}.cls-13{fill:#2a5477;}.cls-14{clip-path:url(#clip-path-3);}.cls-15{fill:#193c58;}.cls-16{clip-path:url(#clip-path-4);}.cls-17{fill:#93501e;}.cls-18{clip-path:url(#clip-path-5);}.cls-19{fill:#ae6028;}.cls-20{fill:#aa5d27;}.cls-21{fill:#a55a25;}.cls-22{fill:#a05823;}.cls-23{fill:#9c5521;}.cls-24{fill:#9d5622;}.cls-25{fill:#8f4d1c;}.cls-26{fill:#e87f3a;}.cls-27{clip-path:url(#clip-path-6);}.cls-28{fill:#975220;}.cls-29{clip-path:url(#clip-path-7);}.cls-30{fill:#2b542d;}.cls-31{clip-path:url(#clip-path-8);}.cls-32{fill:#305a32;}.cls-33{fill:#2f5931;}.cls-34{fill:#2e5830;}.cls-35{fill:#2e5730;}.cls-36{fill:#2d562f;}.cls-37{fill:#2a532d;}.cls-38{fill:#3a673a;}.cls-39{clip-path:url(#clip-path-9);}.cls-40{fill:#2c552e;}.cls-41{opacity:0.59;}.cls-42{clip-path:url(#clip-path-10);}.cls-43{fill:#f1f1f2;}</style><clipPath id="clip-path" transform="translate(-30.85)"><path class="cls-1" d="M30.85,68.69l0-8.16c0,1.8,1.17,3.6,3.53,5l0,8.15C32,72.28,30.84,70.48,30.85,68.69Z"/></clipPath><clipPath id="clip-path-2" transform="translate(-30.85)"><path class="cls-1" d="M245.76,63.92l0,8.15c0,1.78-1.16,3.54-3.48,4.89l0-8.15C244.6,67.46,245.76,65.69,245.76,63.92Z"/></clipPath><clipPath id="clip-path-3" transform="translate(-30.85)"><path class="cls-1" d="M150,122.44l0,8.15c-4.65,2.7-12.28,2.7-17,0l0-8.15C137.72,125.14,145.35,125.14,150,122.44Z"/></clipPath><clipPath id="clip-path-4" transform="translate(-30.85)"><path class="cls-1" d="M169.46,148.72l0-8.15c0,1.79,1.17,3.59,3.52,4.94l0,8.16C170.64,152.31,169.46,150.51,169.46,148.72Z"/></clipPath><clipPath id="clip-path-5" transform="translate(-30.85)"><path class="cls-1" d="M384.39,144l0,8.15c0,1.77-1.16,3.54-3.47,4.88l0-8.15C383.22,147.5,384.38,145.73,384.39,144Z"/></clipPath><clipPath id="clip-path-6" transform="translate(-30.85)"><path class="cls-1" d="M288.63,202.47l0,8.15c-4.65,2.7-12.29,2.7-17,0l0-8.15C276.34,205.17,284,205.17,288.63,202.47Z"/></clipPath><clipPath id="clip-path-7" transform="translate(-30.85)"><path class="cls-1" d="M308.08,228.75l0-8.15c0,1.79,1.17,3.59,3.53,5l0,8.15C309.25,232.34,308.08,230.54,308.08,228.75Z"/></clipPath><clipPath id="clip-path-8" transform="translate(-30.85)"><path class="cls-1" d="M523,224l0,8.15c0,1.77-1.16,3.54-3.47,4.88l0-8.15C521.84,227.53,523,225.76,523,224Z"/></clipPath><clipPath id="clip-path-9" transform="translate(-30.85)"><path class="cls-1" d="M427.25,282.5l0,8.15c-4.65,2.7-12.28,2.7-17,0l0-8.15C415,285.2,422.6,285.2,427.25,282.5Z"/></clipPath><clipPath id="clip-path-10" transform="translate(-30.85)"><polygon class="cls-1" points="227.99 159.43 310.24 111.63 323.78 119.44 241.53 167.24 227.99 159.43"/></clipPath></defs><g id="Layer_2" data-name="Layer 2"><g id="Layer_1-2" data-name="Layer 1"><g class="cls-2"><g class="cls-2"><g class="cls-3"><g class="cls-2"><path class="cls-4" d="M34.4,65.49l0,8.15c-2.36-1.36-3.54-3.16-3.53-5l0-8.16c0,1.8,1.17,3.6,3.53,5" transform="translate(-30.85)"/></g></g></g><g class="cls-2"><g class="cls-5"><g class="cls-2"><path class="cls-6" d="M245.76,63.92l0,8.15a4.21,4.21,0,0,1-.42,1.82l0-8.15a4.21,4.21,0,0,0,.42-1.82" transform="translate(-30.85)"/><path class="cls-7" d="M245.34,65.74l0,8.15a5.37,5.37,0,0,1-.75,1.17l0-8.15a5.32,5.32,0,0,0,.74-1.17" transform="translate(-30.85)"/><path class="cls-8" d="M244.6,66.91l0,8.15a6.9,6.9,0,0,1-.89.91l0-8.16a7.65,7.65,0,0,0,.9-.9" transform="translate(-30.85)"/><path class="cls-9" d="M243.7,67.81l0,8.16a10.19,10.19,0,0,1-1.07.78l0-8.15a8.24,8.24,0,0,0,1.07-.79" transform="translate(-30.85)"/><path class="cls-10" d="M242.63,68.6l0,8.15-.35.21,0-8.15.34-.21" transform="translate(-30.85)"/></g></g></g><polygon class="cls-11" points="211.44 68.81 211.42 76.96 119.14 130.59 119.16 122.44 211.44 68.81"/><polygon class="cls-12" points="102.2 122.44 102.18 130.59 3.53 73.64 3.56 65.49 102.2 122.44"/><path class="cls-13" d="M242.24,59c4.68,2.7,4.7,7.12,0,9.83L150,122.44c-4.66,2.7-12.29,2.7-17,0L34.4,65.49c-4.68-2.71-4.72-7.13-.06-9.83L126.62,2c4.66-2.71,12.29-2.71,17,0Z" transform="translate(-30.85)"/><g class="cls-2"><g class="cls-14"><g class="cls-2"><path class="cls-10" d="M150,122.44l0,8.15c-.31.18-.64.35-1,.51l0-8.16c.34-.15.66-.32,1-.5" transform="translate(-30.85)"/><path class="cls-15" d="M149,122.94l0,8.16a16,16,0,0,1-1.76.67l0-8.15a14.11,14.11,0,0,0,1.75-.68" transform="translate(-30.85)"/><path class="cls-4" d="M147.28,123.62l0,8.15c-4.54,1.44-10.38,1-14.23-1.18l0-8.15c3.84,2.22,9.68,2.62,14.23,1.18" transform="translate(-30.85)"/></g></g></g></g><g class="cls-2"><g class="cls-2"><g class="cls-16"><g class="cls-2"><path class="cls-17" d="M173,145.51l0,8.16c-2.35-1.36-3.53-3.16-3.53-4.95l0-8.15c0,1.79,1.17,3.59,3.52,4.94" transform="translate(-30.85)"/></g></g></g><g class="cls-2"><g class="cls-18"><g class="cls-2"><path class="cls-19" d="M384.39,144l0,8.15a4.24,4.24,0,0,1-.42,1.82l0-8.15a4.56,4.56,0,0,0,.42-1.82" transform="translate(-30.85)"/><path class="cls-20" d="M384,145.78l0,8.15a5.32,5.32,0,0,1-.74,1.17l0-8.15a5.77,5.77,0,0,0,.75-1.17" transform="translate(-30.85)"/><path class="cls-21" d="M383.22,147l0,8.15a7.54,7.54,0,0,1-.89.9l0-8.15a6.85,6.85,0,0,0,.89-.9" transform="translate(-30.85)"/><path class="cls-22" d="M382.33,147.85l0,8.15a10.19,10.19,0,0,1-1.07.78l0-8.15a9.24,9.24,0,0,0,1.07-.78" transform="translate(-30.85)"/><path class="cls-23" d="M381.26,148.63l0,8.15-.35.21,0-8.15.34-.21" transform="translate(-30.85)"/></g></g></g><polygon class="cls-24" points="350.07 148.84 350.05 156.99 257.76 210.62 257.78 202.47 350.07 148.84"/><polygon class="cls-25" points="240.81 202.47 240.79 210.62 142.15 153.67 142.17 145.51 240.81 202.47"/><path class="cls-26" d="M380.85,139c4.69,2.7,4.72,7.13.07,9.83l-92.29,53.63c-4.65,2.7-12.29,2.7-17,0l-98.65-57c-4.68-2.7-4.7-7.12,0-9.82l92.28-53.63c4.65-2.71,12.29-2.71,17,0Z" transform="translate(-30.85)"/><g class="cls-2"><g class="cls-27"><g class="cls-2"><path class="cls-23" d="M288.63,202.47l0,8.15c-.32.18-.64.35-1,.51l0-8.15c.33-.16.66-.33,1-.51" transform="translate(-30.85)"/><path class="cls-28" d="M287.66,203l0,8.15a15.14,15.14,0,0,1-1.75.68l0-8.16a14.22,14.22,0,0,0,1.76-.67" transform="translate(-30.85)"/><path class="cls-17" d="M285.9,203.65l0,8.16c-4.54,1.43-10.39,1-14.25-1.19l0-8.15c3.85,2.22,9.7,2.62,14.24,1.18" transform="translate(-30.85)"/></g></g></g></g><g class="cls-2"><g class="cls-2"><g class="cls-29"><g class="cls-2"><path class="cls-30" d="M311.64,225.55l0,8.15c-2.36-1.36-3.53-3.16-3.53-4.95l0-8.15c0,1.79,1.17,3.59,3.53,5" transform="translate(-30.85)"/></g></g></g><g class="cls-2"><g class="cls-31"><g class="cls-2"><path class="cls-32" d="M523,224l0,8.15a4.24,4.24,0,0,1-.42,1.82l0-8.15A4.42,4.42,0,0,0,523,224" transform="translate(-30.85)"/><path class="cls-33" d="M522.59,225.81l0,8.15a5.32,5.32,0,0,1-.74,1.17l0-8.15a5.77,5.77,0,0,0,.75-1.17" transform="translate(-30.85)"/><path class="cls-34" d="M521.84,227l0,8.15a7.65,7.65,0,0,1-.9.9l0-8.15a7.54,7.54,0,0,0,.89-.9" transform="translate(-30.85)"/><path class="cls-35" d="M521,227.88l0,8.15a9.09,9.09,0,0,1-1.06.78l0-8.15a10.19,10.19,0,0,0,1.07-.78" transform="translate(-30.85)"/><path class="cls-36" d="M519.88,228.66l0,8.15-.35.21,0-8.15.35-.21" transform="translate(-30.85)"/></g></g></g><polygon class="cls-36" points="488.69 228.87 488.67 237.02 396.38 290.65 396.4 282.5 488.69 228.87"/><polygon class="cls-37" points="379.44 282.5 379.41 290.65 280.77 233.7 280.79 225.55 379.44 282.5"/><path class="cls-38" d="M519.48,219c4.68,2.7,4.7,7.13,0,9.83L427.25,282.5c-4.65,2.7-12.29,2.7-17,0l-98.64-56.95c-4.69-2.71-4.71-7.13-.06-9.83l92.28-53.63c4.65-2.7,12.29-2.7,17,0Z" transform="translate(-30.85)"/><g class="cls-2"><g class="cls-39"><g class="cls-2"><path class="cls-36" d="M427.25,282.5l0,8.15c-.31.18-.63.35-1,.51l0-8.15c.34-.16.66-.33,1-.51" transform="translate(-30.85)"/><path class="cls-40" d="M426.27,283l0,8.15a15.88,15.88,0,0,1-1.75.68l0-8.16a13.49,13.49,0,0,0,1.75-.67" transform="translate(-30.85)"/><path class="cls-30" d="M424.52,283.68l0,8.16c-4.54,1.43-10.39,1-14.24-1.19l0-8.15c3.85,2.22,9.7,2.62,14.24,1.18" transform="translate(-30.85)"/></g></g></g></g><g class="cls-41"><g class="cls-2"><g class="cls-42"><polyline class="cls-43" points="292.93 119.44 279.4 111.63 197.15 159.43 210.68 167.24 292.93 119.44"/></g></g></g></g></g></svg>