<svg xmlns="http://www.w3.org/2000/svg" xmlns:xlink="http://www.w3.org/1999/xlink" viewBox="0 0 492.16 292.68"><defs><style>.cls-1{fill:none;}.cls-2{isolation:isolate;}.cls-3{clip-path:url(#clip-path);}.cls-4{fill:#183b57;}.cls-5{clip-path:url(#clip-path-2);}.cls-6{fill:#1f4462;}.cls-7{fill:#1e4260;}.cls-8{fill:#1d415e;}.cls-9{fill:#1c3f5c;}.cls-10{fill:#1a3e5a;}.cls-11{fill:#1b3e5b;}.cls-12{fill:#173955;}.cls-13{fill:#2a5477;}.cls-14{clip-path:url(#clip-path-3);}.cls-15{fill:#193c58;}.cls-16{clip-path:url(#clip-path-4);}.cls-17{fill:#733914;}.cls-18{clip-path:url(#clip-path-5);}.cls-19{fill:#7d3f18;}.cls-20{fill:#7b3e18;}.cls-21{fill:#7a3d17;}.cls-22{fill:#783c16;}.cls-23{fill:#763b15;}.cls-24{fill:#773c16;}.cls-25{fill:#723913;}.cls-26{fill:#924b21;}.cls-27{clip-path:url(#clip-path-6);}.cls-28{fill:#753a14;}.cls-29{clip-path:url(#clip-path-7);}.cls-30{fill:#31733c;}.cls-31{clip-path:url(#clip-path-8);}.cls-32{fill:#3f8848;}.cls-33{fill:#3d8546;}.cls-34{fill:#3a8144;}.cls-35{fill:#387e42;}.cls-36{fill:#367a40;}.cls-37{fill:#367b41;}.cls-38{fill:#2f703a;}.cls-39{fill:#59b260;}.cls-40{clip-path:url(#clip-path-9);}.cls-41{fill:#33773e;}.cls-42{opacity:0.59;}.cls-43{clip-path:url(#clip-path-10);}.cls-44{fill:#f1f1f2;}</style><clipPath id="clip-path" transform="translate(-30.85)"><path class="cls-1" d="M30.85,68.69l0-8.15c0,1.79,1.16,3.59,3.52,4.95l0,8.15C32,72.28,30.85,70.49,30.85,68.69Z"/></clipPath><clipPath id="clip-path-2" transform="translate(-30.85)"><path class="cls-1" d="M245.78,63.93l0,8.15c0,1.77-1.16,3.54-3.47,4.88l0-8.16C244.61,67.46,245.77,65.7,245.78,63.93Z"/></clipPath><clipPath id="clip-path-3" transform="translate(-30.85)"><path class="cls-1" d="M150,122.44l0,8.15c-4.64,2.7-12.28,2.71-17,0l0-8.15C137.73,125.15,145.37,125.14,150,122.44Z"/></clipPath><clipPath id="clip-path-4" transform="translate(-30.85)"><path class="cls-1" d="M169.47,148.72l0-8.15c0,1.79,1.17,3.59,3.52,5l0,8.15C170.64,152.31,169.47,150.51,169.47,148.72Z"/></clipPath><clipPath id="clip-path-5" transform="translate(-30.85)"><path class="cls-1" d="M384.4,144l0,8.15c0,1.77-1.16,3.54-3.47,4.88l0-8.15C383.23,147.5,384.39,145.73,384.4,144Z"/></clipPath><clipPath id="clip-path-6" transform="translate(-30.85)"><path class="cls-1" d="M288.64,202.47l0,8.15c-4.65,2.71-12.29,2.71-17,0l0-8.16C276.35,205.18,284,205.18,288.64,202.47Z"/></clipPath><clipPath id="clip-path-7" transform="translate(-30.85)"><path class="cls-1" d="M308.1,228.76l0-8.16c0,1.8,1.17,3.59,3.53,5l0,8.15C309.27,232.34,308.09,230.55,308.1,228.76Z"/></clipPath><clipPath id="clip-path-8" transform="translate(-30.85)"><path class="cls-1" d="M523,224l0,8.16c0,1.77-1.16,3.53-3.47,4.87l0-8.15C521.85,227.53,523,225.76,523,224Z"/></clipPath><clipPath id="clip-path-9" transform="translate(-30.85)"><path class="cls-1" d="M427.26,282.5l0,8.16c-4.65,2.7-12.28,2.7-17,0l0-8.16C415,285.21,422.61,285.21,427.26,282.5Z"/></clipPath><clipPath id="clip-path-10" transform="translate(-30.85)"><polygon class="cls-1" points="351.46 231.69 433.71 183.89 495.84 219.75 413.58 267.56 351.46 231.69"/></clipPath></defs><g id="Layer_2" data-name="Layer 2"><g id="Layer_1-2" data-name="Layer 1"><g class="cls-2"><g class="cls-2"><g class="cls-3"><g class="cls-2"><path class="cls-4" d="M34.4,65.49l0,8.15c-2.36-1.36-3.53-3.15-3.53-5l0-8.15c0,1.79,1.16,3.59,3.52,4.95" transform="translate(-30.85)"/></g></g></g><g class="cls-2"><g class="cls-5"><g class="cls-2"><path class="cls-6" d="M245.78,63.93l0,8.15a4.28,4.28,0,0,1-.42,1.82l0-8.15a4.6,4.6,0,0,0,.42-1.82" transform="translate(-30.85)"/><path class="cls-7" d="M245.36,65.75l0,8.15a5,5,0,0,1-.74,1.16l0-8.15a5.71,5.71,0,0,0,.75-1.16" transform="translate(-30.85)"/><path class="cls-8" d="M244.61,66.91l0,8.15a6.86,6.86,0,0,1-.89.9l0-8.15a6.85,6.85,0,0,0,.89-.9" transform="translate(-30.85)"/><path class="cls-9" d="M243.72,67.81l0,8.15a9,9,0,0,1-1.07.79l0-8.16a8.2,8.2,0,0,0,1.07-.78" transform="translate(-30.85)"/><path class="cls-10" d="M242.65,68.59l0,8.16-.35.21,0-8.16a2.39,2.39,0,0,0,.34-.21" transform="translate(-30.85)"/></g></g></g><polygon class="cls-11" points="211.46 68.8 211.43 76.96 119.14 130.59 119.16 122.44 211.46 68.8"/><polygon class="cls-12" points="102.19 122.44 102.17 130.59 3.52 73.64 3.55 65.49 102.19 122.44"/><path class="cls-13" d="M242.25,59c4.68,2.71,4.7,7.13.06,9.82L150,122.44c-4.64,2.7-12.28,2.71-17,0L34.4,65.49c-4.68-2.7-4.7-7.14-.06-9.83L126.64,2c4.64-2.7,12.28-2.69,17,0Z" transform="translate(-30.85)"/><g class="cls-2"><g class="cls-14"><g class="cls-2"><path class="cls-10" d="M150,122.44l0,8.15c-.31.18-.63.35-1,.51l0-8.15c.34-.16.66-.33,1-.51" transform="translate(-30.85)"/><path class="cls-15" d="M149,123l0,8.15a13.64,13.64,0,0,1-1.76.67l0-8.15A15.12,15.12,0,0,0,149,123" transform="translate(-30.85)"/><path class="cls-4" d="M147.29,123.62l0,8.15c-4.54,1.44-10.39,1-14.24-1.18l0-8.15c3.86,2.23,9.71,2.62,14.25,1.18" transform="translate(-30.85)"/></g></g></g></g><g class="cls-2"><g class="cls-2"><g class="cls-16"><g class="cls-2"><path class="cls-17" d="M173,145.52l0,8.15c-2.36-1.36-3.53-3.16-3.53-4.95l0-8.15c0,1.79,1.17,3.59,3.52,5" transform="translate(-30.85)"/></g></g></g><g class="cls-2"><g class="cls-18"><g class="cls-2"><path class="cls-19" d="M384.4,144l0,8.15a4.21,4.21,0,0,1-.42,1.82l0-8.15a4.52,4.52,0,0,0,.42-1.82" transform="translate(-30.85)"/><path class="cls-20" d="M384,145.78l0,8.15a5.32,5.32,0,0,1-.74,1.17l0-8.15a5.77,5.77,0,0,0,.75-1.17" transform="translate(-30.85)"/><path class="cls-21" d="M383.23,147l0,8.15a7.54,7.54,0,0,1-.89.9l0-8.15a6.85,6.85,0,0,0,.89-.9" transform="translate(-30.85)"/><path class="cls-22" d="M382.34,147.85l0,8.15a8.93,8.93,0,0,1-1.07.78l0-8.15a9.24,9.24,0,0,0,1.07-.78" transform="translate(-30.85)"/><path class="cls-23" d="M381.27,148.63l0,8.15-.35.21,0-8.15.34-.21" transform="translate(-30.85)"/></g></g></g><polygon class="cls-24" points="350.07 148.84 350.05 156.99 257.76 210.63 257.79 202.47 350.07 148.84"/><polygon class="cls-25" points="240.82 202.47 240.8 210.63 142.15 153.67 142.17 145.52 240.82 202.47"/><path class="cls-26" d="M380.87,139c4.68,2.71,4.7,7.13.06,9.83l-92.29,53.63c-4.65,2.71-12.29,2.71-17,0L173,145.52c-4.68-2.7-4.7-7.13-.05-9.83l92.28-53.63c4.65-2.7,12.29-2.7,17,0Z" transform="translate(-30.85)"/><g class="cls-2"><g class="cls-27"><g class="cls-2"><path class="cls-23" d="M288.64,202.47l0,8.15c-.32.19-.64.35-1,.51l0-8.15c.33-.16.66-.33,1-.51" transform="translate(-30.85)"/><path class="cls-28" d="M287.67,203l0,8.15a13.52,13.52,0,0,1-1.75.68l0-8.15a16.05,16.05,0,0,0,1.76-.68" transform="translate(-30.85)"/><path class="cls-17" d="M285.91,203.66l0,8.15c-4.54,1.43-10.39,1-14.24-1.18l0-8.16c3.85,2.23,9.7,2.62,14.24,1.19" transform="translate(-30.85)"/></g></g></g></g><g class="cls-2"><g class="cls-2"><g class="cls-29"><g class="cls-2"><path class="cls-30" d="M311.65,225.55l0,8.15c-2.35-1.36-3.53-3.15-3.52-4.94l0-8.16c0,1.8,1.17,3.59,3.53,5" transform="translate(-30.85)"/></g></g></g><g class="cls-2"><g class="cls-31"><g class="cls-2"><path class="cls-32" d="M523,224l0,8.16a4.2,4.2,0,0,1-.42,1.81l0-8.15A4.21,4.21,0,0,0,523,224" transform="translate(-30.85)"/><path class="cls-33" d="M522.59,225.81l0,8.15a5.32,5.32,0,0,1-.74,1.17l0-8.15a5.32,5.32,0,0,0,.74-1.17" transform="translate(-30.85)"/><path class="cls-34" d="M521.85,227l0,8.15a7.65,7.65,0,0,1-.9.9l0-8.15a7.54,7.54,0,0,0,.89-.9" transform="translate(-30.85)"/><path class="cls-35" d="M521,227.88l0,8.15a8.07,8.07,0,0,1-1.06.78l0-8.15a10.19,10.19,0,0,0,1.07-.78" transform="translate(-30.85)"/><path class="cls-36" d="M519.89,228.66l0,8.15a3.24,3.24,0,0,1-.35.21l0-8.15.35-.21" transform="translate(-30.85)"/></g></g></g><polygon class="cls-37" points="488.69 228.87 488.67 237.03 396.38 290.66 396.4 282.5 488.69 228.87"/><polygon class="cls-38" points="379.44 282.5 379.41 290.66 280.77 233.7 280.79 225.55 379.44 282.5"/><path class="cls-39" d="M519.49,219.05c4.68,2.7,4.7,7.12,0,9.82L427.26,282.5c-4.65,2.71-12.29,2.71-17,0l-98.64-56.95c-4.68-2.7-4.71-7.12-.06-9.82l92.29-53.64c4.65-2.7,12.28-2.7,17,0Z" transform="translate(-30.85)"/><g class="cls-2"><g class="cls-40"><g class="cls-2"><path class="cls-36" d="M427.26,282.5l0,8.16a9.83,9.83,0,0,1-1,.5l0-8.15c.34-.16.66-.32,1-.51" transform="translate(-30.85)"/><path class="cls-41" d="M426.28,283l0,8.15a14.11,14.11,0,0,1-1.75.68l0-8.15a13.52,13.52,0,0,0,1.75-.68" transform="translate(-30.85)"/><path class="cls-30" d="M424.53,283.69l0,8.15c-4.55,1.43-10.39,1-14.24-1.18l0-8.16c3.85,2.23,9.7,2.62,14.24,1.19" transform="translate(-30.85)"/></g></g></g></g><g class="cls-42"><g class="cls-2"><g class="cls-43"><path class="cls-44" d="M409,213.94l26.89-15.63,8.95,5.16q9.23,5.34,10.78,9.74t-5.43,8.48a25.77,25.77,0,0,1-14.6,3.56c-5.15-.29-10.89-2.24-17.19-5.89l-9.4-5.42m48.11-16.55-23.39-13.5-82.25,47.8L365,239.51l32.86-19.1,13.36,7.72-13,30.53,15.41,8.9,13-34.66q22.61,5.49,38-3.43,12-7,10.3-14.91T457.1,197.39" transform="translate(-30.85)"/></g></g></g></g></g></svg>