<svg xmlns="http://www.w3.org/2000/svg" xmlns:xlink="http://www.w3.org/1999/xlink" viewBox="0 0 492.15 292.68"><defs><style>.cls-1{fill:none;}.cls-2{isolation:isolate;}.cls-3{clip-path:url(#clip-path);}.cls-4{fill:#295481;}.cls-5{clip-path:url(#clip-path-2);}.cls-6{fill:#336597;}.cls-7{fill:#326294;}.cls-8{fill:#305f90;}.cls-9{fill:#2e5d8c;}.cls-10{fill:#2d5a88;}.cls-11{fill:#2d5b8a;}.cls-12{fill:#27527d;}.cls-13{fill:#4484c5;}.cls-14{clip-path:url(#clip-path-3);}.cls-15{fill:#2b5785;}.cls-16{clip-path:url(#clip-path-4);}.cls-17{fill:#733913;}.cls-18{clip-path:url(#clip-path-5);}.cls-19{fill:#7d3e18;}.cls-20{fill:#7b3d18;}.cls-21{fill:#7a3c17;}.cls-22{fill:#783b16;}.cls-23{fill:#763a15;}.cls-24{fill:#773b15;}.cls-25{fill:#723813;}.cls-26{fill:#914a21;}.cls-27{clip-path:url(#clip-path-6);}.cls-28{fill:#753914;}.cls-29{clip-path:url(#clip-path-7);}.cls-30{fill:#2b542d;}.cls-31{clip-path:url(#clip-path-8);}.cls-32{fill:#305a32;}.cls-33{fill:#2f5931;}.cls-34{fill:#2e5830;}.cls-35{fill:#2e5730;}.cls-36{fill:#2d562f;}.cls-37{fill:#2a532d;}.cls-38{fill:#3a673a;}.cls-39{clip-path:url(#clip-path-9);}.cls-40{fill:#2c552e;}.cls-41{opacity:0.59;}.cls-42{clip-path:url(#clip-path-10);}.cls-43{fill:#f1f1f2;}</style><clipPath id="clip-path" transform="translate(-30.85)"><path class="cls-1" d="M30.85,68.68l0-8.15c0,1.8,1.17,3.59,3.54,5l0,8.15C32,72.28,30.84,70.48,30.85,68.68Z"/></clipPath><clipPath id="clip-path-2" transform="translate(-30.85)"><path class="cls-1" d="M245.76,63.92l0,8.15c0,1.77-1.16,3.54-3.47,4.89l0-8.15C244.6,67.46,245.76,65.69,245.76,63.92Z"/></clipPath><clipPath id="clip-path-3" transform="translate(-30.85)"><path class="cls-1" d="M150,122.44l0,8.15c-4.65,2.7-12.28,2.7-16.95,0l0-8.15C137.72,125.14,145.35,125.14,150,122.44Z"/></clipPath><clipPath id="clip-path-4" transform="translate(-30.85)"><path class="cls-1" d="M169.46,148.72l0-8.15c0,1.79,1.18,3.59,3.53,5l0,8.15C170.63,152.31,169.46,150.51,169.46,148.72Z"/></clipPath><clipPath id="clip-path-5" transform="translate(-30.85)"><path class="cls-1" d="M384.38,144l0,8.16c0,1.76-1.16,3.53-3.47,4.87l0-8.15C383.22,147.5,384.38,145.73,384.38,144Z"/></clipPath><clipPath id="clip-path-6" transform="translate(-30.85)"><path class="cls-1" d="M288.63,202.47l0,8.15c-4.65,2.71-12.28,2.71-17,0l0-8.15C276.34,205.17,284,205.17,288.63,202.47Z"/></clipPath><clipPath id="clip-path-7" transform="translate(-30.85)"><path class="cls-1" d="M308.08,228.75l0-8.15c0,1.79,1.17,3.59,3.53,5l0,8.15C309.25,232.34,308.07,230.54,308.08,228.75Z"/></clipPath><clipPath id="clip-path-8" transform="translate(-30.85)"><path class="cls-1" d="M523,224l0,8.15c0,1.77-1.16,3.54-3.47,4.88l0-8.15C521.84,227.53,523,225.76,523,224Z"/></clipPath><clipPath id="clip-path-9" transform="translate(-30.85)"><path class="cls-1" d="M427.24,282.5l0,8.15c-4.65,2.71-12.29,2.71-17,0l0-8.15C415,285.21,422.59,285.21,427.24,282.5Z"/></clipPath><clipPath id="clip-path-10" transform="translate(-30.85)"><polygon class="cls-1" points="72.77 69.9 157.33 20.76 210.34 51.36 125.77 100.5 72.77 69.9"/></clipPath></defs><g id="Layer_2" data-name="Layer 2"><g id="Layer_1-2" data-name="Layer 1"><g class="cls-2"><g class="cls-2"><g class="cls-3"><g class="cls-2"><path class="cls-4" d="M34.41,65.49l0,8.15c-2.36-1.36-3.54-3.16-3.53-5l0-8.15c0,1.8,1.17,3.59,3.54,5" transform="translate(-30.85)"/></g></g></g><g class="cls-2"><g class="cls-5"><g class="cls-2"><path class="cls-6" d="M245.76,63.92l0,8.15a4.21,4.21,0,0,1-.42,1.82l0-8.15a4.24,4.24,0,0,0,.42-1.82" transform="translate(-30.85)"/><path class="cls-7" d="M245.34,65.74l0,8.15a5.14,5.14,0,0,1-.75,1.17l0-8.15a5.32,5.32,0,0,0,.74-1.17" transform="translate(-30.85)"/><path class="cls-8" d="M244.6,66.91l0,8.15a6.9,6.9,0,0,1-.89.91l0-8.16a7.65,7.65,0,0,0,.9-.9" transform="translate(-30.85)"/><path class="cls-9" d="M243.7,67.81l0,8.16a9.24,9.24,0,0,1-1.07.78l0-8.15a8.11,8.11,0,0,0,1.06-.79" transform="translate(-30.85)"/><path class="cls-10" d="M242.64,68.6l0,8.15-.34.21,0-8.15.35-.21" transform="translate(-30.85)"/></g></g></g><polygon class="cls-11" points="211.44 68.81 211.42 76.96 119.13 130.59 119.16 122.44 211.44 68.81"/><polygon class="cls-12" points="102.2 122.44 102.18 130.59 3.54 73.64 3.56 65.49 102.2 122.44"/><path class="cls-13" d="M242.25,59c4.67,2.7,4.69,7.12,0,9.83L150,122.44c-4.65,2.7-12.28,2.7-16.95,0L34.41,65.49c-4.69-2.71-4.72-7.13-.07-9.83L126.62,2c4.65-2.7,12.3-2.71,17,0Z" transform="translate(-30.85)"/><g class="cls-2"><g class="cls-14"><g class="cls-2"><path class="cls-10" d="M150,122.44l0,8.15c-.31.18-.64.35-1,.51l0-8.16a9.83,9.83,0,0,0,1-.5" transform="translate(-30.85)"/><path class="cls-15" d="M149,122.94l0,8.16a16,16,0,0,1-1.76.67l0-8.15a14.11,14.11,0,0,0,1.75-.68" transform="translate(-30.85)"/><path class="cls-4" d="M147.28,123.62l0,8.15c-4.54,1.44-10.38,1-14.22-1.18l0-8.15c3.84,2.22,9.69,2.61,14.23,1.18" transform="translate(-30.85)"/></g></g></g></g><g class="cls-2"><g class="cls-2"><g class="cls-16"><g class="cls-2"><path class="cls-17" d="M173,145.52l0,8.15c-2.36-1.36-3.53-3.16-3.53-4.95l0-8.15c0,1.79,1.18,3.59,3.53,5" transform="translate(-30.85)"/></g></g></g><g class="cls-2"><g class="cls-18"><g class="cls-2"><path class="cls-19" d="M384.38,144l0,8.16a4.2,4.2,0,0,1-.42,1.81l0-8.15a4.21,4.21,0,0,0,.42-1.82" transform="translate(-30.85)"/><path class="cls-20" d="M384,145.78l0,8.15a5.72,5.72,0,0,1-.74,1.17l0-8.15a5.32,5.32,0,0,0,.74-1.17" transform="translate(-30.85)"/><path class="cls-21" d="M383.22,147l0,8.15a7.65,7.65,0,0,1-.9.9l0-8.15a7.54,7.54,0,0,0,.89-.9" transform="translate(-30.85)"/><path class="cls-22" d="M382.33,147.85l0,8.15a9.09,9.09,0,0,1-1.06.78l0-8.15a10.19,10.19,0,0,0,1.07-.78" transform="translate(-30.85)"/><path class="cls-23" d="M381.26,148.63l0,8.15-.35.21,0-8.15.35-.21" transform="translate(-30.85)"/></g></g></g><polygon class="cls-24" points="350.06 148.84 350.04 156.99 257.75 210.62 257.78 202.47 350.06 148.84"/><polygon class="cls-25" points="240.81 202.47 240.78 210.62 142.14 153.67 142.16 145.52 240.81 202.47"/><path class="cls-26" d="M380.85,139c4.69,2.71,4.71,7.13.06,9.83l-92.28,53.63c-4.65,2.7-12.29,2.7-17,0L173,145.52c-4.68-2.7-4.7-7.13-.06-9.83l92.29-53.63c4.65-2.7,12.29-2.7,17,0Z" transform="translate(-30.85)"/><g class="cls-2"><g class="cls-27"><g class="cls-2"><path class="cls-23" d="M288.63,202.47l0,8.15a9.89,9.89,0,0,1-1,.51l0-8.15c.34-.16.66-.33,1-.51" transform="translate(-30.85)"/><path class="cls-28" d="M287.65,203l0,8.15a15.88,15.88,0,0,1-1.75.68l0-8.15a15.14,15.14,0,0,0,1.75-.68" transform="translate(-30.85)"/><path class="cls-17" d="M285.9,203.66l0,8.15c-4.55,1.43-10.4,1-14.25-1.19l0-8.15c3.86,2.22,9.71,2.62,14.25,1.19" transform="translate(-30.85)"/></g></g></g></g><g class="cls-2"><g class="cls-2"><g class="cls-29"><g class="cls-2"><path class="cls-30" d="M311.63,225.55l0,8.15c-2.36-1.36-3.54-3.16-3.53-4.95l0-8.15c0,1.79,1.17,3.59,3.53,5" transform="translate(-30.85)"/></g></g></g><g class="cls-2"><g class="cls-31"><g class="cls-2"><path class="cls-32" d="M523,224l0,8.15a4.21,4.21,0,0,1-.42,1.82l0-8.15A4.21,4.21,0,0,0,523,224" transform="translate(-30.85)"/><path class="cls-33" d="M522.58,225.81l0,8.15a5.77,5.77,0,0,1-.75,1.17l0-8.15a5.32,5.32,0,0,0,.74-1.17" transform="translate(-30.85)"/><path class="cls-34" d="M521.84,227l0,8.15a6.85,6.85,0,0,1-.89.9l0-8.15a7.65,7.65,0,0,0,.9-.9" transform="translate(-30.85)"/><path class="cls-35" d="M520.94,227.88l0,8.15a8.2,8.2,0,0,1-1.07.78l0-8.15a9.09,9.09,0,0,0,1.06-.78" transform="translate(-30.85)"/><path class="cls-36" d="M519.88,228.66l0,8.15-.34.21,0-8.15.35-.21" transform="translate(-30.85)"/></g></g></g><polygon class="cls-36" points="488.68 228.87 488.66 237.02 396.37 290.65 396.4 282.5 488.68 228.87"/><polygon class="cls-37" points="379.43 282.5 379.41 290.65 280.76 233.7 280.79 225.55 379.43 282.5"/><path class="cls-38" d="M519.47,219c4.68,2.71,4.71,7.13.06,9.83L427.24,282.5c-4.65,2.71-12.28,2.71-17,0l-98.65-56.95c-4.68-2.7-4.71-7.13-.06-9.83l92.29-53.63c4.65-2.7,12.29-2.7,17,0Z" transform="translate(-30.85)"/><g class="cls-2"><g class="cls-39"><g class="cls-2"><path class="cls-36" d="M427.24,282.5l0,8.15c-.31.19-.64.35-1,.51l0-8.15c.34-.16.66-.33,1-.51" transform="translate(-30.85)"/><path class="cls-40" d="M426.27,283l0,8.15a14.26,14.26,0,0,1-1.76.68l0-8.15a15.88,15.88,0,0,0,1.75-.68" transform="translate(-30.85)"/><path class="cls-30" d="M424.52,283.69l0,8.15c-4.54,1.43-10.39,1-14.24-1.19l0-8.15c3.85,2.23,9.7,2.62,14.24,1.19" transform="translate(-30.85)"/></g></g></g></g><g class="cls-41"><g class="cls-2"><g class="cls-42"><path class="cls-43" d="M185.42,37a58,58,0,0,0-25.67-8q-13.26-.81-23.57,5.17Q128,38.93,126.77,45t5.56,15.27q6.58,8.88,6.9,12.78t-4.31,6.57a20.69,20.69,0,0,1-12,2.53q-6.86-.44-14.9-5.08a55.94,55.94,0,0,1-10.34-7.73A48.3,48.3,0,0,1,89.82,60L77.1,67.38q4.62,7.68,18.66,15.79A65.21,65.21,0,0,0,124,92.26q14.22,1,25.2-5.4,5.56-3.23,7.69-6.76a10.29,10.29,0,0,0,1.14-7.88q-1-4.35-6.33-11.8-4.78-6.62-5.86-9.58a6.75,6.75,0,0,1-.18-5.09,9.38,9.38,0,0,1,4.13-4,19.3,19.3,0,0,1,10.91-2.4,28.51,28.51,0,0,1,12.81,4.1,47.92,47.92,0,0,1,15.09,14.06l15.27-3.89A54.62,54.62,0,0,0,185.42,37" transform="translate(-30.85)"/></g></g></g></g></g></svg>