<?xml version="1.0" encoding="utf-8"?>
<!-- Generator: Adobe Illustrator 25.2.1, SVG Export Plug-In . SVG Version: 6.00 Build 0)  -->
<svg version="1.1" id="sickguy" xmlns="http://www.w3.org/2000/svg" xmlns:xlink="http://www.w3.org/1999/xlink" x="0px" y="0px"
	 viewBox="0 0 207.6 270.3" style="enable-background:new 0 0 207.6 270.3;" xml:space="preserve">
<style type="text/css">
	.st0{fill:none;stroke:#C3996C;stroke-width:8;stroke-linecap:round;stroke-miterlimit:10;}
	.st1{fill:none;stroke:#C3996C;stroke-width:7;stroke-linecap:round;stroke-miterlimit:10;}
	.st2{fill:#231F20;stroke:#231F20;stroke-width:7;stroke-linecap:round;stroke-miterlimit:10;}
	.st3{fill:#985EA6;}
	.st4{fill:#C3996C;}
	.st5{fill:#802A34;}
	.st6{opacity:0.3;}
	.st7{fill:#D7DF28;}
	.st8{fill:#3C2517;}
	.st9{fill:#F4CB45;}
</style>
<line id="left_arm_upper" class="st0" x1="133.2" y1="97.9" x2="155.2" y2="132.4"/>
<line id="right_leg" class="st1" x1="90.3" y1="189.6" x2="90.3" y2="260.8"/>
<line id="left_leg" class="st1" x1="124.9" y1="182.7" x2="124.9" y2="253.9"/>
<path id="right_foot" class="st2" d="M91.2,262.7l4.1,2.4c1.2,0.7,2.8,0.3,3.6-0.9l0,0l0,0c0.7-1.2,0.3-2.8-0.9-3.6l-4.2-2.5
	c-1.2-0.7-2.8-0.3-3.6,0.9l0,0C89.6,260.3,89.9,261.9,91.2,262.7L91.2,262.7z"/>
<path id="left_foot" class="st2" d="M127.2,248.7l5.2,3c1.2,0.7,1.7,2.3,0.9,3.6l0,0c-0.7,1.2-2.3,1.7-3.6,0.9l0,0l0,0l-5.2-3
	c-1.2-0.7-1.6-2.3-0.9-3.6l0,0C124.3,248.4,125.9,248,127.2,248.7L127.2,248.7z"/>
<g id="belly">
	<path class="st3" d="M161.4,88.2c2.4,14.9-15.6,19.1-19.9,40.8c-4.6,23.7,9.8,33.1,2.8,49.4c-6.4,14.8-26.8,19.2-44.9,15.7
		c-22.8-4.4-40.1-23-42.1-49.9c-1.6-9.2-3.6-29.6,6.8-50.8c4-8.1,10.5-21.2,25.6-28.8c18.3-9.1,36.3-3.6,40.8-2.1
		C134.4,63.8,158.6,71.8,161.4,88.2z"/>
</g>
<line id="left_arm_lower" class="st0" x1="130.6" y1="141.8" x2="155.1" y2="131.5"/>
<path id="right_arm" class="st0" d="M67.2,108.1l11.7,31.3c0,0.1,0.1,0.2,0.2,0.2l34.8,7.7"/>
<path id="head" class="st4" d="M88.4,39.7L88.4,39.7l3.8-15.2c3-11,11.2-18.8,22.8-21.9c15.5-4.1,34.5,0.9,45.1,12.1
	c7.7,7.6,11,18.8,8.5,28.6l-3.7,15.2c-3.1,11.3-11.5,19.2-23.5,22c-7.5,1.7-15.4,1.6-22.9-0.3c-0.7-0.2-1.3-0.3-2-0.6
	c-8.4-2.4-15.8-7-20.7-12.7C88.8,59.7,86.2,49.5,88.4,39.7z"/>
<path id="mouth" class="st5" d="M128.4,64.3c2.5-6,8.6-9.4,14.3-8.4c4.7,0.9,8.5,4.3,9.9,8.9"/>
<g id="sick_face" class="st6">
	<path class="st7" d="M88.8,40.5l3.7-15.2c3-11.1,11.2-18.8,22.8-21.9c15.6-4.1,34.5,1,45.1,12.1c7.6,7.6,11,18.8,8.5,28.6
		l-3.7,15.2l0,0c-3.1,11.3-11.4,19.2-23.5,22.1c-7.5,1.7-15.4,1.6-22.9-0.3c-0.7-0.2-1.3-0.4-2-0.6c-8.4-2.5-15.8-7-20.7-12.7
		C89.2,60.5,86.4,50.3,88.8,40.5z"/>
</g>
<path id="hair" class="st8" d="M169.6,31.2c-2.2-12.3-13-23.6-26.4-29.3c-23.2-9.7-44.6,4.4-50.3,20.3c-1.8,4.8-4,10.9-2.8,11.5
	c1.5,0.8,7.6-9.6,9.4-8.7s-2.7,13.2-1.4,13.8c0.9,0.4,4-4.5,6-8.5c2.2-4.3,2.8-6.9,3.7-6.9c1.8,0.1,1.3,9.1,4.1,9.8
	c3.5,0.9,7.3-12,14-12c3.2,0,3.2,3,9.4,6c2.1,1.1,7.6,3.8,14,2.7c5.7-0.9,6.5-4.1,9.6-3.5c6.7,1.4,7.9,17.4,9.7,17.1
	C169.8,43.6,170.9,37.5,169.6,31.2z"/>
<polygon id="lightening_4" class="st9" points="196.1,112.4 191.6,108.8 204.4,104.3 200.6,98.1 181.9,107.3 185.1,110.3 
	175.4,116.8 "/>
<polygon id="lightening_3" class="st9" points="31.9,86.5 29.8,92.2 20.8,80.8 15.8,86.8 31.5,102.7 33.5,98.4 43.5,106.1 "/>
<polygon id="lightening_2" class="st9" points="178.9,167.1 179.4,161.5 190.2,169.4 193.1,162.8 175.1,152.5 174.4,156.9 
	163.6,152.6 "/>
<polygon id="lightening_1" class="st9" points="36.3,168.6 40.7,172.3 27.9,176.4 31.5,182.7 50.5,174.1 47.2,170.9 57.2,164.7 "/>
</svg>
